<svg version="1.1" id="Layer_1" xmlns="http://www.w3.org/2000/svg" xlink="http://www.w3.org/1999/xlink" x="0px" y="0px"
              width="256px" height="351px" viewBox="0 0 256 351" enable-background="new 0 0 256 351" space="preserve">
              <path fill="##272725" d="M0,282.998l2.123-2.973L102.527,89.512l0.212-2.017L58.479,4.358c-3.708-6.964-14.148-5.204-15.365,2.592
              L0,282.998z" />
              <path fill="##272725" d="M135.005,150.381l32.955-33.751l-32.964-62.93c-3.13-5.957-11.867-5.974-14.963,0l-17.612,33.589v2.861
              L135.005,150.381z" />
              <path fill="##272725" d="M139.121,347.551l116.275-64.848L222.191,78.209c-1.039-6.398-8.888-8.928-13.467-4.34L0,282.998
              l115.608,64.547C122.915,351.625,131.812,351.627,139.121,347.551" />
            </svg>