<svg xmlns="http://www.w3.org/2000/svg" data-name="Responsive" viewBox="0 0 100 125" x="0px" y="0px"><title>Responsive</title><path d="M28.58,81.92H22.5A2.11,2.11,0,0,1,20.4,80H2v1.76a2.12,2.12,0,0,0,2.12,2.12h44a2.12,2.12,0,0,0,2.12-2.12V80H30.68A2.11,2.11,0,0,1,28.58,81.92Z"/><path d="M96,43.55H89.79V18.25a3.12,3.12,0,0,0-3.12-3.12H12a3.12,3.12,0,0,0-3.12,3.12V43.55H5.13A3.12,3.12,0,0,0,2,46.66V77.81H50.29V73.28H61.64a2.12,2.12,0,0,0,2.12-2.12V68.88a2.12,2.12,0,0,0-2.12-2.12H50.29v-4.2H70.82v19a3,3,0,0,0,3,3H96a3,3,0,0,0,3-3V46.55A3,3,0,0,0,96,43.55Zm1,3V77.87H72.82V46.55a1,1,0,0,1,1-1H96A1,1,0,0,1,97,46.55ZM83.2,80.34a1.47,1.47,0,1,1,1.47,1.47A1.47,1.47,0,0,1,83.2,80.34Zm-34.9-4.53H4V46.66a1.12,1.12,0,0,1,1.12-1.12h42a1.12,1.12,0,0,1,1.12,1.12V75.81Zm2-15.25V46.66a3.12,3.12,0,0,0-3.12-3.12H10.85V18.25A1.12,1.12,0,0,1,12,17.14H86.67a1.12,1.12,0,0,1,1.12,1.12V43.55h-14a3,3,0,0,0-3,3v14H50.29Z"/><polygon points="17.55 61.09 23.64 64.07 23.64 62.79 19.17 60.72 19.17 60.7 23.64 58.61 23.64 57.32 17.55 60.3 17.55 61.09"/><polygon points="24.1 64.58 25.18 64.58 28.16 55.41 27.07 55.41 24.1 64.58"/><polygon points="28.67 58.58 33.54 60.68 33.54 60.71 28.67 62.81 28.67 64.07 34.76 61.25 34.76 60.14 28.67 57.32 28.67 58.58"/><polygon points="35.43 33.86 45.26 38.68 45.26 36.61 38.05 33.27 38.05 33.23 45.26 29.87 45.26 27.78 35.43 32.59 35.43 33.86"/><polygon points="46 39.49 47.74 39.49 52.55 24.71 50.79 24.71 46 39.49"/><polygon points="53.37 29.81 61.23 33.21 61.23 33.25 53.37 36.65 53.37 38.68 63.2 34.13 63.2 32.33 53.37 27.78 53.37 29.81"/><polygon points="83.27 63.35 80.36 62 80.36 61.98 83.27 60.63 83.27 59.79 79.31 61.73 79.31 62.24 83.27 64.18 83.27 63.35"/><polygon points="86.21 58.55 85.5 58.55 83.57 64.51 84.27 64.51 86.21 58.55"/><polygon points="90.51 61.62 86.55 59.79 86.55 60.61 89.72 61.98 89.72 61.99 86.55 63.36 86.55 64.18 90.51 62.35 90.51 61.62"/></svg>